/* XPM */
static char * despatcher_gui_xpm[] = {
"40 40 4 1",
" 	c #C16168",
".	c #000000",
"+	c #535353",
"@	c #404040",
"                                        ",
"                                        ",
"                                        ",
"                                        ",
"                                        ",
"                                        ",
"                                        ",
"                                        ",
"                                        ",
"                                        ",
"                          ........      ",
"                       .............    ",
"                     +..............    ",
"                    @...............    ",
"                   .........            ",
"......           ..........             ",
".......         ........                ",
".......        .........                ",
" .......      ........                  ",
"  ......     ........                   ",
"  ......    ........                    ",
"   ......  ........                     ",
"   ...... ........                      ",
"    ............      .....             ",
"    ............   ........             ",
"     ..........   .........        .... ",
"     .........    .......    ...   .... ",
"     .........    ....       .... ..... ",
"      .......     ...        .........  ",
"      .......     ...         ........  ",
"      ......      ...    ...   ......   ",
"      ......      ..........    ......  ",
"      ......      ..........     ...... ",
"      ....         .........    ........",
"                  .......       ........",
"                  .....        ..... ...",
"                  ....      .......   ..",
"                  .................    .",
"                   ...............      ",
"                    ...........         "};
